<svg width="16" height="13" viewBox="0 0 16 13" fill="none" xmlns="http://www.w3.org/2000/svg">
<path d="M15.0932 0.95312L1.62709 0.95312C1.49075 0.953548 1.35711 0.991151 1.24055 1.06188C1.124 1.13261 1.02894 1.23379 0.965604 1.35453C0.902273 1.47526 0.873069 1.61099 0.881136 1.74709C0.889203 1.88319 0.934235 2.01451 1.01139 2.12692L7.74446 11.8525C8.02351 12.2557 8.69533 12.2557 8.97512 11.8525L15.7082 2.12692C15.7861 2.01474 15.8318 1.88336 15.8403 1.74703C15.8489 1.6107 15.8198 1.47465 15.7564 1.35366C15.6931 1.23267 15.5977 1.13136 15.4808 1.06074C15.3639 0.990127 15.2298 0.952906 15.0932 0.95312Z" fill="#0D121C"/>
</svg>
