<svg width="39" height="39" viewBox="0 0 39 39" fill="none" xmlns="http://www.w3.org/2000/svg">
<circle cx="19.2416" cy="19.1375" r="18.9168" fill="url(#paint0_linear_210_1600)"/>
<path d="M22.7884 10.8614C20.6129 10.8614 18.8474 12.627 18.8474 14.8024C18.8474 16.9778 20.6129 18.7434 22.7884 18.7434C24.9638 18.7434 26.7294 16.9778 26.7294 14.8024C26.7294 12.627 24.9638 10.8614 22.7884 10.8614ZM22.7884 17.167C21.4799 17.167 20.4238 16.1108 20.4238 14.8024C20.4238 13.494 21.4799 12.4378 22.7884 12.4378C24.0968 12.4378 25.153 13.494 25.153 14.8024C25.153 16.1108 24.0968 17.167 22.7884 17.167ZM25.153 21.8962H23.5766C23.5766 20.9504 22.9854 20.0991 22.1026 19.7681L17.2473 17.9552H10.9653V26.6254H15.6945V25.4904L21.212 27.0195L27.5176 25.049V24.2608C27.5176 22.9524 26.4614 21.8962 25.153 21.8962ZM14.1181 25.049H12.5417V19.5316H14.1181V25.049ZM21.1883 25.3722L15.6945 23.8667V19.5316H16.9635L21.5509 21.242C21.8189 21.3445 22.0002 21.6046 22.0002 21.8962C22.0002 21.8962 20.4238 21.8568 20.1873 21.778L18.3114 21.1553L17.8148 22.6529L19.6907 23.2756C20.0927 23.4096 20.5105 23.4726 20.9361 23.4726H25.153C25.4604 23.4726 25.7362 23.6618 25.8623 23.9219L21.1883 25.3722Z" fill="black"/>
<defs>
<linearGradient id="paint0_linear_210_1600" x1="19.2416" y1="0.220703" x2="19.2416" y2="38.0544" gradientUnits="userSpaceOnUse">
<stop stop-color="#79DD7C"/>
<stop offset="1" stop-color="#F4F289"/>
</linearGradient>
</defs>
</svg>
