<svg width="42" height="41" viewBox="0 0 42 41" fill="none" xmlns="http://www.w3.org/2000/svg">
<path d="M25.2953 6.07732L23.4093 5.63354L18.6387 11.4027H21.1904L19.7481 14.5091L25.8501 8.96188H23.4093L25.2953 6.07732Z" fill="black" stroke="black" stroke-width="0.221889"/>
<path d="M18.9319 18.8756L19.0079 19.0581C19.1299 19.3507 19.1927 19.6647 19.1927 19.9817V20.4921C19.1927 20.5913 19.0829 20.6513 18.9995 20.5976L16.9085 19.2534C16.3717 18.9083 15.7469 18.7248 15.1087 18.7248H14.0188C13.2064 18.7248 12.422 18.4277 11.8135 17.8894L10.8177 17.0085C10.2093 16.4702 9.42489 16.1731 8.61248 16.1731H4.5525C4.35315 16.1731 4.17827 16.306 4.12491 16.4981L3.737 17.8946C3.69303 18.0529 3.77164 18.2195 3.92177 18.2862C5.06616 18.7948 6.30455 19.0576 7.55687 19.0576H7.83917C8.2159 19.0576 8.36383 19.5463 8.05038 19.7552L7.93576 19.8316C7.39064 20.1951 6.75014 20.389 6.09497 20.389C5.51746 20.389 4.94994 20.2383 4.44852 19.9517L4.19505 19.8069C3.93206 19.6566 3.59912 19.8082 3.53972 20.1052L3.39411 20.8332C3.35486 21.0295 3.45181 21.2277 3.63081 21.3172L5.10014 22.0518C5.68553 22.3445 6.33274 22.4969 6.98724 22.4969C7.78414 22.4969 8.5668 22.2711 9.24057 21.8455L10.2086 21.2342C10.2795 21.1894 10.3617 21.1656 10.4455 21.1656H10.7596C11.2061 21.1656 11.3731 21.7506 10.9939 21.9863L9.23135 23.0819C8.56325 23.4972 7.79229 23.7173 7.00564 23.7173H6.05947C5.9037 23.7173 5.82106 23.9014 5.92454 24.0178L6.71815 24.9106C7.17258 25.4218 7.82393 25.7143 8.50793 25.7143C8.89429 25.7143 9.27448 25.6174 9.61366 25.4324L10.2981 25.059C10.3108 25.0521 10.3226 25.0439 10.3335 25.0344L12.6623 23.0061C12.9924 22.7185 13.4954 23.0321 13.3826 23.4551L13.3526 23.5676C13.3267 23.6645 13.2688 23.7499 13.1882 23.8096L9.87335 26.269L8.59054 27.1242C8.38194 27.2633 8.32987 27.5474 8.47558 27.7514L8.69107 28.0531C8.73678 28.1171 8.81059 28.1551 8.88923 28.1551C10.5884 28.1551 12.2217 27.4973 13.4465 26.3195L13.5593 26.211C13.7595 26.0186 14.0807 26.2349 13.9776 26.4927L13.4628 27.7797C13.4014 27.9333 13.5427 28.0907 13.702 28.0461L14.3528 27.8638C15.4532 27.5557 16.3643 26.7827 16.8475 25.7472C16.8576 25.7256 16.8728 25.7068 16.8919 25.6925L17.0554 25.5699C17.206 25.457 17.4113 25.4513 17.5679 25.5556L17.9641 25.8198C17.9695 25.8234 17.9743 25.8279 17.9782 25.8331C18.1904 26.1161 18.3051 26.4602 18.3051 26.8139V27.1134C18.3051 27.5066 18.2136 27.8944 18.0377 28.2461L18.0032 28.3151C17.7654 28.7907 17.665 29.3232 17.7131 29.8527L17.8613 31.4834L18.5826 36.429C18.6144 36.6471 18.8014 36.8088 19.0217 36.8088H21.8044C22.0248 36.8088 22.2118 36.6471 22.2436 36.429L22.9648 31.4834L23.0412 29.8034C23.0639 29.3024 22.9757 28.8026 22.7828 28.3397L22.7754 28.3219C22.6075 27.9188 22.521 27.4865 22.521 27.0498V26.7495C22.521 26.4335 22.5946 26.1219 22.7359 25.8393C22.7405 25.83 22.7471 25.8219 22.7551 25.8155L23.0567 25.5742C23.2015 25.4584 23.4032 25.4448 23.5622 25.5402L23.784 25.6733C23.8292 25.7004 23.8692 25.7354 23.9022 25.7766L25.0978 27.2712C25.1538 27.3411 25.2295 27.3924 25.3151 27.4185L26.8107 27.8737C27.1737 27.9841 27.4989 27.6177 27.3461 27.2704L27.0509 26.5995C26.9142 26.2888 27.2866 26.0038 27.5508 26.2168L28.3818 26.8869C29.3993 27.7076 30.6672 28.1551 31.9744 28.1551C32.0306 28.1551 32.0846 28.1328 32.1243 28.093L32.3888 27.8285C32.6071 27.6102 32.5413 27.2412 32.261 27.1118L31.3966 26.7128L30.1348 25.9558C29.5106 25.5812 29.0107 25.0309 28.6978 24.3737L28.5689 24.103C28.4468 23.8466 28.7558 23.6017 28.9776 23.7791L30.1182 24.6917C30.9345 25.3447 31.9829 25.6344 33.0186 25.4931C33.5463 25.4212 34.0297 25.1595 34.3785 24.757L34.8865 24.1709C35.0403 23.9934 34.9142 23.7173 34.6794 23.7173H33.8423C32.8997 23.7173 31.9792 23.4314 31.2025 22.8974L30.62 22.4969L29.389 21.5121C29.0614 21.2501 29.2467 20.7218 29.6662 20.7218H29.8652C29.9234 20.7218 29.9804 20.7383 30.0296 20.7694C31.3574 21.608 32.9115 22.0531 34.482 22.0531C35.6335 22.0531 36.7587 21.6412 37.633 20.8918L37.716 20.8207C37.7892 20.7579 37.8313 20.6663 37.8313 20.5699V20.389C37.8313 20.1439 37.6326 19.9452 37.3876 19.9452H33.9775C33.2423 19.9452 32.5309 19.6846 31.9696 19.2097C31.7868 19.055 31.9067 18.7567 32.1457 18.7716L34.1572 18.8974C35.7596 18.9975 37.3062 18.2907 38.2792 17.0136C38.3685 16.8965 38.2849 16.7278 38.1377 16.7278H31.2192C30.4211 16.7278 29.6677 17.0963 29.1777 17.7263C28.6877 18.3563 27.9342 18.7248 27.1361 18.7248H26.0324C25.4755 18.7248 24.9275 18.8646 24.4386 19.1312L21.7982 20.5715C21.674 20.6392 21.5225 20.5493 21.5225 20.4078V19.9662C21.5225 19.6575 21.5604 19.35 21.6352 19.0505L21.734 18.6553C21.8138 18.3364 21.8168 18.0031 21.7429 17.6828L21.6611 17.3283C21.5733 16.948 21.3204 16.6268 20.9713 16.4522C20.6182 16.2757 20.2043 16.268 19.8448 16.4314L19.7562 16.4717C19.3951 16.6358 19.1129 16.9353 18.9705 17.3056L18.9123 17.4567C18.7362 17.9146 18.7432 18.4228 18.9319 18.8756Z" fill="black" stroke="black" stroke-width="0.221889"/>
<path d="M39.5241 20.5C39.5241 30.4238 31.1634 38.5839 20.7051 38.5839C10.2468 38.5839 1.88605 30.4238 1.88605 20.5C1.88605 10.5762 10.2468 2.41608 20.7051 2.41608C31.1634 2.41608 39.5241 10.5762 39.5241 20.5Z" stroke="black" stroke-width="3.77211"/>
<circle cx="11.317" cy="30.4849" r="1.10944" fill="black"/>
<circle cx="14.4229" cy="15.3968" r="1.10944" fill="black"/>
<circle cx="15.0884" cy="32.2601" r="1.10944" fill="black"/>
<circle cx="25.7388" cy="32.2601" r="1.10944" fill="black"/>
<circle cx="29.5118" cy="30.4849" r="1.10944" fill="black"/>
<rect x="24.6294" y="16.0564" width="8.40603" height="1.55322" rx="0.776611" transform="rotate(-45.3981 24.6294 16.0564)" fill="black"/>
<rect x="7.76514" y="14.2812" width="10.4013" height="1.55322" rx="0.776611" transform="rotate(-45.3981 7.76514 14.2812)" fill="black"/>
</svg>
