<svg width="42" height="40" viewBox="0 0 42 40" fill="none" xmlns="http://www.w3.org/2000/svg">
<path d="M25.2953 5.57729L23.4093 5.13351L18.6387 10.9026H21.1904L19.7481 14.0091L25.8501 8.46185H23.4093L25.2953 5.57729Z" fill="black" stroke="black" stroke-width="0.221889"/>
<path d="M18.9319 18.3756L19.0079 18.5581C19.1299 18.8507 19.1927 19.1647 19.1927 19.4817V19.9921C19.1927 20.0913 19.0829 20.1513 18.9995 20.0976L16.9085 18.7534C16.3717 18.4083 15.7469 18.2248 15.1087 18.2248H14.0188C13.2064 18.2248 12.422 17.9277 11.8135 17.3894L10.8177 16.5085C10.2093 15.9702 9.42489 15.6731 8.61248 15.6731H4.5525C4.35315 15.6731 4.17827 15.806 4.12491 15.9981L3.737 17.3946C3.69303 17.5529 3.77164 17.7195 3.92177 17.7862C5.06616 18.2948 6.30455 18.5576 7.55687 18.5576H7.83917C8.2159 18.5576 8.36383 19.0463 8.05038 19.2552L7.93576 19.3316C7.39064 19.6951 6.75014 19.889 6.09497 19.889C5.51746 19.889 4.94994 19.7383 4.44852 19.4517L4.19505 19.3069C3.93206 19.1566 3.59912 19.3082 3.53972 19.6052L3.39411 20.3332C3.35486 20.5295 3.45181 20.7277 3.63081 20.8172L5.10014 21.5518C5.68553 21.8445 6.33274 21.9969 6.98724 21.9969C7.78414 21.9969 8.5668 21.7711 9.24057 21.3455L10.2086 20.7342C10.2795 20.6894 10.3617 20.6656 10.4455 20.6656H10.7596C11.2061 20.6656 11.3731 21.2506 10.9939 21.4863L9.23135 22.5819C8.56325 22.9972 7.79229 23.2173 7.00564 23.2173H6.05947C5.9037 23.2173 5.82106 23.4014 5.92454 23.5178L6.71815 24.4106C7.17258 24.9218 7.82393 25.2143 8.50793 25.2143C8.89429 25.2143 9.27448 25.1174 9.61366 24.9324L10.2981 24.559C10.3108 24.5521 10.3226 24.5439 10.3335 24.5344L12.6623 22.5061C12.9924 22.2185 13.4954 22.5321 13.3826 22.9551L13.3526 23.0676C13.3267 23.1645 13.2688 23.2499 13.1882 23.3096L9.87335 25.769L8.59054 26.6242C8.38194 26.7633 8.32987 27.0474 8.47558 27.2514L8.69107 27.5531C8.73678 27.6171 8.81059 27.6551 8.88923 27.6551C10.5884 27.6551 12.2217 26.9973 13.4465 25.8195L13.5593 25.711C13.7595 25.5186 14.0807 25.7349 13.9776 25.9927L13.4628 27.2797C13.4014 27.4333 13.5427 27.5907 13.702 27.5461L14.3528 27.3638C15.4532 27.0557 16.3643 26.2827 16.8475 25.2472C16.8576 25.2256 16.8728 25.2068 16.8919 25.1925L17.0554 25.0699C17.206 24.957 17.4113 24.9513 17.5679 25.0556L17.9641 25.3198C17.9695 25.3234 17.9743 25.3279 17.9782 25.3331C18.1904 25.6161 18.3051 25.9602 18.3051 26.3139V26.6134C18.3051 27.0066 18.2136 27.3944 18.0377 27.7461L18.0032 27.8151C17.7654 28.2907 17.665 28.8232 17.7131 29.3527L17.8613 30.9834L18.5826 35.929C18.6144 36.1471 18.8014 36.3088 19.0217 36.3088H21.8044C22.0248 36.3088 22.2118 36.1471 22.2436 35.929L22.9648 30.9834L23.0412 29.3034C23.0639 28.8024 22.9757 28.3026 22.7828 27.8397L22.7754 27.8219C22.6075 27.4188 22.521 26.9865 22.521 26.5498V26.2495C22.521 25.9335 22.5946 25.6219 22.7359 25.3393C22.7405 25.33 22.7471 25.3219 22.7551 25.3155L23.0567 25.0742C23.2015 24.9584 23.4032 24.9448 23.5622 25.0402L23.784 25.1733C23.8292 25.2004 23.8692 25.2354 23.9022 25.2766L25.0978 26.7712C25.1538 26.8411 25.2295 26.8924 25.3151 26.9185L26.8107 27.3737C27.1737 27.4841 27.4989 27.1177 27.3461 26.7704L27.0509 26.0995C26.9142 25.7888 27.2866 25.5038 27.5508 25.7168L28.3818 26.3869C29.3993 27.2076 30.6672 27.6551 31.9744 27.6551C32.0306 27.6551 32.0846 27.6328 32.1243 27.593L32.3888 27.3285C32.6071 27.1102 32.5413 26.7412 32.261 26.6118L31.3966 26.2128L30.1348 25.4558C29.5106 25.0812 29.0107 24.5309 28.6978 23.8737L28.5689 23.603C28.4468 23.3466 28.7558 23.1017 28.9776 23.2791L30.1182 24.1917C30.9345 24.8447 31.9829 25.1344 33.0186 24.9931C33.5463 24.9212 34.0297 24.6595 34.3785 24.257L34.8865 23.6709C35.0403 23.4934 34.9142 23.2173 34.6794 23.2173H33.8423C32.8997 23.2173 31.9792 22.9314 31.2025 22.3974L30.62 21.9969L29.389 21.0121C29.0614 20.7501 29.2467 20.2218 29.6662 20.2218H29.8652C29.9234 20.2218 29.9804 20.2383 30.0296 20.2694C31.3574 21.108 32.9115 21.5531 34.482 21.5531C35.6335 21.5531 36.7587 21.1412 37.633 20.3918L37.716 20.3207C37.7892 20.2579 37.8313 20.1663 37.8313 20.0699V19.889C37.8313 19.6439 37.6326 19.4452 37.3876 19.4452H33.9775C33.2423 19.4452 32.5309 19.1846 31.9696 18.7097C31.7868 18.555 31.9067 18.2567 32.1457 18.2716L34.1572 18.3974C35.7596 18.4975 37.3062 17.7907 38.2792 16.5136C38.3685 16.3965 38.2849 16.2278 38.1377 16.2278H31.2192C30.4211 16.2278 29.6677 16.5963 29.1777 17.2263C28.6877 17.8563 27.9342 18.2248 27.1361 18.2248H26.0324C25.4755 18.2248 24.9275 18.3646 24.4386 18.6312L21.7982 20.0715C21.674 20.1392 21.5225 20.0493 21.5225 19.9078V19.4662C21.5225 19.1575 21.5604 18.85 21.6352 18.5505L21.734 18.1553C21.8138 17.8364 21.8168 17.5031 21.7429 17.1828L21.6611 16.8283C21.5733 16.448 21.3204 16.1268 20.9713 15.9522C20.6182 15.7757 20.2043 15.768 19.8448 15.9314L19.7562 15.9717C19.3951 16.1358 19.1129 16.4353 18.9705 16.8056L18.9123 16.9567C18.7362 17.4146 18.7432 17.9228 18.9319 18.3756Z" fill="black" stroke="black" stroke-width="0.221889"/>
<path d="M39.5241 20C39.5241 29.9238 31.1634 38.0839 20.7051 38.0839C10.2468 38.0839 1.88605 29.9238 1.88605 20C1.88605 10.0762 10.2468 1.91608 20.7051 1.91608C31.1634 1.91608 39.5241 10.0762 39.5241 20Z" stroke="black" stroke-width="3.77211"/>
<circle cx="11.317" cy="29.985" r="1.10944" fill="black"/>
<circle cx="14.4229" cy="14.8967" r="1.10944" fill="black"/>
<circle cx="15.0884" cy="31.7601" r="1.10944" fill="black"/>
<circle cx="25.7388" cy="31.7601" r="1.10944" fill="black"/>
<circle cx="29.5118" cy="29.985" r="1.10944" fill="black"/>
<rect x="24.6294" y="15.5564" width="8.40603" height="1.55322" rx="0.776611" transform="rotate(-45.3981 24.6294 15.5564)" fill="black"/>
<rect x="7.76514" y="13.7813" width="10.4013" height="1.55322" rx="0.776611" transform="rotate(-45.3981 7.76514 13.7813)" fill="black"/>
</svg>
