<svg width="24" height="24" viewBox="0 0 24 24" fill="none" xmlns="http://www.w3.org/2000/svg">
<g clip-path="url(#clip0_210_2560)">
<path d="M16.892 4.29811C17.0235 4.15136 17.1827 4.03197 17.3604 3.94676C17.5381 3.86155 17.7309 3.8122 17.9277 3.80152C18.1245 3.79084 18.3214 3.81904 18.5073 3.88452C18.6932 3.95 18.8643 4.05146 19.011 4.18311C20.1102 5.16694 20.9892 6.37185 21.5905 7.71894C22.1917 9.06603 22.5017 10.5249 22.5 12.0001C22.5 17.8001 17.799 22.5001 12 22.5001V19.5001C13.5182 19.5001 15.0006 19.0394 16.2513 18.1789C17.502 17.3184 18.4621 16.0985 19.0047 14.6806C19.5473 13.2628 19.6469 11.7136 19.2902 10.2379C18.9335 8.76228 18.1373 7.42961 17.007 6.41611C16.7109 6.15048 16.5325 5.77812 16.5109 5.38093C16.4893 4.98374 16.6264 4.59424 16.892 4.29811Z" fill="url(#paint0_linear_210_2560)"/>
</g>
<defs>
<linearGradient id="paint0_linear_210_2560" x1="537" y1="288.799" x2="537" y2="1633.57" gradientUnits="userSpaceOnUse">
<stop stop-opacity="0"/>
<stop offset="1" stop-opacity="0.55"/>
</linearGradient>
<clipPath id="clip0_210_2560">
<rect width="24" height="24" fill="white"/>
</clipPath>
</defs>
</svg>
