<svg width="16" height="16" viewBox="0 0 16 16" fill="none" xmlns="http://www.w3.org/2000/svg">
<path fill-rule="evenodd" clip-rule="evenodd" d="M8.15566 0.636761C4.1272 0.636761 0.861493 3.90247 0.861493 7.93093C0.861493 11.9594 4.1272 15.2251 8.15566 15.2251C12.1841 15.2251 15.4498 11.9594 15.4498 7.93093C15.4456 3.90424 12.1824 0.641014 8.15566 0.636761ZM8.71675 1.78489C9.0966 1.81955 9.47233 1.89 9.83893 1.9953V13.8694C9.47233 13.9747 9.0966 14.0451 8.71675 14.0798V1.78489ZM10.9611 2.43435C11.361 2.6391 11.7373 2.88698 12.0833 3.17359V12.6883C11.7373 12.9749 11.361 13.2228 10.9611 13.4275V2.43435ZM1.98367 7.93093C1.98751 4.74121 4.41839 2.07849 7.59457 1.78489V14.077C4.41839 13.7834 1.98751 11.1207 1.98367 7.93093ZM13.2055 11.4756V4.38625C14.7017 6.51252 14.7017 9.34935 13.2055 11.4756Z" fill="#0D121C"/>
</svg>
