<svg width="21" height="21" viewBox="0 0 21 21" fill="none" xmlns="http://www.w3.org/2000/svg">
<path d="M11.8121 4.55578H18.4746M11.8121 7.88705H15.9761M11.8121 12.8839H18.4746M11.8121 16.2152H15.9761M3.48389 4.55578C3.48389 4.3349 3.57163 4.12307 3.72781 3.96689C3.884 3.8107 4.09583 3.72296 4.3167 3.72296H7.64797C7.86885 3.72296 8.08068 3.8107 8.23686 3.96689C8.39305 4.12307 8.48079 4.3349 8.48079 4.55578V7.88705C8.48079 8.10792 8.39305 8.31975 8.23686 8.47594C8.08068 8.63212 7.86885 8.71986 7.64797 8.71986H4.3167C4.09583 8.71986 3.884 8.63212 3.72781 8.47594C3.57163 8.31975 3.48389 8.10792 3.48389 7.88705V4.55578ZM3.48389 12.8839C3.48389 12.6631 3.57163 12.4512 3.72781 12.2951C3.884 12.1389 4.09583 12.0511 4.3167 12.0511H7.64797C7.86885 12.0511 8.08068 12.1389 8.23686 12.2951C8.39305 12.4512 8.48079 12.6631 8.48079 12.8839V16.2152C8.48079 16.4361 8.39305 16.6479 8.23686 16.8041C8.08068 16.9603 7.86885 17.048 7.64797 17.048H4.3167C4.09583 17.048 3.884 16.9603 3.72781 16.8041C3.57163 16.6479 3.48389 16.4361 3.48389 16.2152V12.8839Z" stroke="black" stroke-width="1.66563" stroke-linecap="round" stroke-linejoin="round"/>
</svg>
