<svg width="14" height="14" viewBox="0 0 14 14" fill="none" xmlns="http://www.w3.org/2000/svg">
<g clip-path="url(#clip0_210_1104)">
<path d="M4.18745 0.807251C4.30812 0.807251 4.42385 0.855188 4.50918 0.940517C4.59451 1.02585 4.64245 1.14158 4.64245 1.26225V2.1131H9.5285V1.2681C9.5285 1.14743 9.57644 1.0317 9.66177 0.946367C9.7471 0.861038 9.86283 0.813101 9.9835 0.813101C10.1042 0.813101 10.2199 0.861038 10.3052 0.946367C10.3906 1.0317 10.4385 1.14743 10.4385 1.2681V2.1131H12.2C12.5447 2.1131 12.8752 2.24998 13.119 2.49363C13.3628 2.73729 13.4998 3.06778 13.5 3.41245V12.5079C13.4998 12.8526 13.3628 13.1831 13.119 13.4267C12.8752 13.6704 12.5447 13.8073 12.2 13.8073H1.8C1.45533 13.8073 1.12477 13.6704 0.880991 13.4267C0.637212 13.1831 0.500172 12.8526 0.5 12.5079V3.41245C0.500172 3.06778 0.637212 2.73729 0.880991 2.49363C1.12477 2.24998 1.45533 2.1131 1.8 2.1131H3.73245V1.2616C3.73262 1.14104 3.78064 1.02548 3.86595 0.940288C3.95126 0.855099 4.06689 0.807251 4.18745 0.807251ZM1.41 5.83955V12.5079C1.41 12.5591 1.42009 12.6098 1.43969 12.6571C1.45929 12.7045 1.48801 12.7475 1.52423 12.7837C1.56044 12.8199 1.60344 12.8486 1.65075 12.8682C1.69807 12.8878 1.74878 12.8979 1.8 12.8979H12.2C12.2512 12.8979 12.3019 12.8878 12.3492 12.8682C12.3966 12.8486 12.4396 12.8199 12.4758 12.7837C12.512 12.7475 12.5407 12.7045 12.5603 12.6571C12.5799 12.6098 12.59 12.5591 12.59 12.5079V5.84865L1.41 5.83955ZM4.83355 10.3096V11.3925H3.75V10.3096H4.83355ZM7.54145 10.3096V11.3925H6.45855V10.3096H7.54145ZM10.25 10.3096V11.3925H9.16645V10.3096H10.25ZM4.83355 7.72455V8.80745H3.75V7.72455H4.83355ZM7.54145 7.72455V8.80745H6.45855V7.72455H7.54145ZM10.25 7.72455V8.80745H9.16645V7.72455H10.25ZM3.73245 3.02245H1.8C1.74878 3.02245 1.69807 3.03254 1.65075 3.05214C1.60344 3.07174 1.56044 3.10046 1.52423 3.13668C1.48801 3.17289 1.45929 3.21589 1.43969 3.2632C1.42009 3.31052 1.41 3.36124 1.41 3.41245V4.9302L12.59 4.9393V3.41245C12.59 3.36124 12.5799 3.31052 12.5603 3.2632C12.5407 3.21589 12.512 3.17289 12.4758 3.13668C12.4396 3.10046 12.3966 3.07174 12.3492 3.05214C12.3019 3.03254 12.2512 3.02245 12.2 3.02245H10.4385V3.6263C10.4385 3.74697 10.3906 3.86271 10.3052 3.94803C10.2199 4.03336 10.1042 4.0813 9.9835 4.0813C9.86283 4.0813 9.7471 4.03336 9.66177 3.94803C9.57644 3.86271 9.5285 3.74697 9.5285 3.6263V3.02245H4.64245V3.62045C4.64245 3.74112 4.59451 3.85686 4.50918 3.94218C4.42385 4.02751 4.30812 4.07545 4.18745 4.07545C4.06678 4.07545 3.95105 4.02751 3.86572 3.94218C3.78039 3.85686 3.73245 3.74112 3.73245 3.62045V3.02245Z" fill="#A7B6CB"/>
</g>
<defs>
<clipPath id="clip0_210_1104">
<rect width="13" height="13" fill="white" transform="translate(0.5 0.807251)"/>
</clipPath>
</defs>
</svg>
