<svg width="15" height="15" viewBox="0 0 15 15" fill="none" xmlns="http://www.w3.org/2000/svg">
<path fill-rule="evenodd" clip-rule="evenodd" d="M7.65225 0.163007C3.62379 0.163007 0.358075 3.42872 0.358075 7.45718C0.358075 11.4856 3.62379 14.7513 7.65225 14.7513C11.6807 14.7513 14.9464 11.4856 14.9464 7.45718C14.9422 3.43048 11.6789 0.167259 7.65225 0.163007ZM8.21334 1.31114C8.59318 1.3458 8.96891 1.41625 9.33552 1.52155V13.3956C8.96891 13.5009 8.59318 13.5714 8.21334 13.606V1.31114ZM10.4577 1.9606C10.8576 2.16534 11.2339 2.41323 11.5799 2.69983V12.2145C11.2339 12.5011 10.8576 12.749 10.4577 12.9538V1.9606ZM1.48025 7.45718C1.48409 4.26745 3.91497 1.60473 7.09116 1.31114V13.6032C3.91497 13.3096 1.48409 10.6469 1.48025 7.45718ZM12.7021 11.0019V3.91249C14.1983 6.03876 14.1983 8.87559 12.7021 11.0019Z" fill="#0D121C"/>
</svg>
