<svg width="12" height="20" viewBox="0 0 12 20" fill="none" xmlns="http://www.w3.org/2000/svg">
<path fill-rule="evenodd" clip-rule="evenodd" d="M11.0306 13.9694C11.1715 14.1101 11.2506 14.3009 11.2506 14.5C11.2506 14.6991 11.1715 14.8899 11.0306 15.0306L6.53063 19.5306C6.38995 19.6715 6.19906 19.7506 6 19.7506C5.80094 19.7506 5.61005 19.6715 5.46937 19.5306L0.969375 15.0306C0.676319 14.7376 0.676319 14.2624 0.969375 13.9694C1.26243 13.6763 1.73757 13.6763 2.03063 13.9694L6 17.9397L9.96937 13.9694C10.1101 13.8285 10.3009 13.7494 10.5 13.7494C10.6991 13.7494 10.8899 13.8285 11.0306 13.9694ZM2.03063 6.03063L6 2.06031L9.96937 6.03063C10.2624 6.32368 10.7376 6.32368 11.0306 6.03063C11.3237 5.73757 11.3237 5.26243 11.0306 4.96938L6.53063 0.469375C6.38995 0.328542 6.19906 0.24941 6 0.24941C5.80094 0.24941 5.61005 0.328542 5.46937 0.469375L0.969375 4.96938C0.676319 5.26243 0.676319 5.73757 0.969375 6.03063C1.26243 6.32368 1.73757 6.32368 2.03063 6.03063Z" fill="#A39EB8"/>
</svg>
