<svg width="26" height="25" viewBox="0 0 26 25" fill="none" xmlns="http://www.w3.org/2000/svg">
<path fill-rule="evenodd" clip-rule="evenodd" d="M24.7662 23.0269L18.9795 17.2414C22.4637 13.0584 22.0416 6.87474 18.0212 3.2041C14.0007 -0.466546 7.80431 -0.325721 3.95481 3.52378C0.105309 7.37328 -0.0355157 13.5697 3.63513 17.5901C7.30577 21.6105 13.4894 22.0327 17.6724 18.5485L23.4579 24.3352C23.8192 24.6964 24.4049 24.6964 24.7662 24.3352C25.1275 23.9739 25.1275 23.3882 24.7662 23.0269ZM2.84697 10.7371C2.84697 6.14143 6.57246 2.41594 11.1681 2.41594C15.7637 2.41594 19.4892 6.14143 19.4892 10.7371C19.4892 15.3327 15.7637 19.0582 11.1681 19.0582C6.57457 19.0531 2.85206 15.3306 2.84697 10.7371Z" fill="#9747FF"/>
</svg>
