<svg width="19" height="20" viewBox="0 0 19 20" fill="none" xmlns="http://www.w3.org/2000/svg">
<path d="M9.4062 0.939758C7.54699 0.939758 5.72953 1.49108 4.18365 2.524C2.63778 3.55692 1.43291 5.02506 0.721422 6.74274C0.00993238 8.46043 -0.176226 10.3505 0.186488 12.174C0.549203 13.9975 1.4445 15.6725 2.75916 16.9871C4.07382 18.3018 5.7488 19.1971 7.57229 19.5598C9.39578 19.9225 11.2859 19.7364 13.0036 19.0249C14.7212 18.3134 16.1894 17.1085 17.2223 15.5626C18.2552 14.0168 18.8065 12.1993 18.8065 10.3401C18.8065 7.84697 17.8162 5.45596 16.0532 3.69305C14.2903 1.93015 11.8993 0.939758 9.4062 0.939758ZM8.0633 14.0935L4.70603 10.7363L5.77364 9.66865L8.0633 11.9583L13.0388 6.98283L14.1104 8.04776L8.0633 14.0935Z" fill="#00DDA4"/>
</svg>
