<svg width="20" height="20" viewBox="0 0 20 20" fill="none" xmlns="http://www.w3.org/2000/svg">
<path fill-rule="evenodd" clip-rule="evenodd" d="M18.4997 6.20719L2.00719 0.09375L1.99219 0.0890625C1.45058 -0.09742 0.850043 0.0408399 0.444503 0.445384C0.0389624 0.849928 -0.100775 1.45012 0.0843749 1.99219C0.0855148 1.99731 0.0870829 2.00233 0.0890625 2.00719L6.20719 18.4997C6.41328 19.1028 6.98268 19.5059 7.62 19.5H7.64812C8.2987 19.495 8.86957 19.0654 9.05437 18.4416L11.2631 11.2641L18.4406 9.05531C19.0592 8.86496 19.4859 8.29933 19.4992 7.65226C19.5124 7.00519 19.1091 6.42261 18.4988 6.20719H18.4997ZM18 7.62187L10.8225 9.83062C10.3481 9.97677 9.97677 10.3481 9.83062 10.8225L7.62187 18L7.61625 17.9841L1.5 1.5L17.9831 7.61438L17.9981 7.62L18 7.62187Z" fill="white"/>
</svg>
