<svg width="24" height="24" viewBox="0 0 24 24" fill="none" xmlns="http://www.w3.org/2000/svg">
<path fill-rule="evenodd" clip-rule="evenodd" d="M12 0.219604C5.4934 0.219604 0.21875 5.49425 0.21875 12.0009C0.21875 18.5075 5.4934 23.7821 12 23.7821C18.5066 23.7821 23.7812 18.5075 23.7812 12.0009C23.7744 5.4971 18.5038 0.226473 12 0.219604ZM12.9063 2.07402C13.5198 2.13 14.1266 2.24379 14.7188 2.41386V21.5924C14.1266 21.7625 13.5198 21.8762 12.9063 21.9322V2.07402ZM16.5312 3.123C17.1772 3.4537 17.7849 3.85407 18.3438 4.31699V19.6847C17.7849 20.1476 17.1772 20.548 16.5312 20.8787V3.123ZM2.03125 12.0009C2.03745 6.84894 5.9637 2.54822 11.0938 2.07402V21.9277C5.9637 21.4535 2.03745 17.1528 2.03125 12.0009ZM20.1562 17.7261V6.27562C22.573 9.70989 22.573 14.2918 20.1562 17.7261Z" fill="#0D121C"/>
</svg>
