<svg width="24" height="15" viewBox="0 0 24 15" fill="none" xmlns="http://www.w3.org/2000/svg">
<path fill-rule="evenodd" clip-rule="evenodd" d="M12 3.75C9.92893 3.75 8.25 5.42893 8.25 7.5C8.25 9.57107 9.92893 11.25 12 11.25C14.0711 11.25 15.75 9.57107 15.75 7.5C15.75 5.42893 14.0711 3.75 12 3.75ZM12 9.75C10.7574 9.75 9.75 8.74264 9.75 7.5C9.75 6.25736 10.7574 5.25 12 5.25C13.2426 5.25 14.25 6.25736 14.25 7.5C14.25 8.74264 13.2426 9.75 12 9.75ZM22.5 0.75H1.5C1.08579 0.75 0.75 1.08579 0.75 1.5V13.5C0.75 13.9142 1.08579 14.25 1.5 14.25H22.5C22.9142 14.25 23.25 13.9142 23.25 13.5V1.5C23.25 1.08579 22.9142 0.75 22.5 0.75ZM18.1547 12.75H5.84531C5.33369 11.0197 3.98033 9.66631 2.25 9.15469V5.84531C3.98033 5.33369 5.33369 3.98033 5.84531 2.25H18.1547C18.6663 3.98033 20.0197 5.33369 21.75 5.84531V9.15469C20.0197 9.66631 18.6663 11.0197 18.1547 12.75ZM21.75 4.25344C20.8504 3.86662 20.1334 3.14959 19.7466 2.25H21.75V4.25344ZM4.25344 2.25C3.86662 3.14959 3.14959 3.86662 2.25 4.25344V2.25H4.25344ZM2.25 10.7466C3.14959 11.1334 3.86662 11.8504 4.25344 12.75H2.25V10.7466ZM19.7466 12.75C20.1334 11.8504 20.8504 11.1334 21.75 10.7466V12.75H19.7466Z" fill="black"/>
</svg>
