<svg width="27" height="27" viewBox="0 0 27 27" fill="none" xmlns="http://www.w3.org/2000/svg">
<path d="M7.31068 5.19884L3.13715 9.39602C-0.799915 13.3094 -0.799915 19.6702 3.13715 23.5837C7.07422 27.4971 13.4114 27.5207 17.3248 23.5837L24.4186 16.4898C25.6009 15.343 25.6009 13.4631 24.4186 12.3045C24.3004 12.1626 24.1467 12.0326 23.9811 11.9261L24.4186 11.465C25.6009 10.3182 25.6009 8.43835 24.4186 7.2797C24.2531 7.09053 24.0284 6.92501 23.8274 6.79495C24.2767 5.70723 24.0757 4.4067 23.189 3.51997C22.1604 2.49137 20.5643 2.38496 19.4056 3.18893C19.1651 2.81837 18.845 2.50603 18.4687 2.27458C18.0923 2.04313 17.6692 1.89837 17.2299 1.85083C16.7907 1.80328 16.3464 1.85413 15.9292 1.99969C15.5121 2.14525 15.1326 2.38187 14.8183 2.69236L11.8507 5.65994C11.7443 5.49442 11.6143 5.34072 11.4724 5.19884C10.9144 4.65855 10.1682 4.35645 9.39153 4.35645C8.61486 4.35645 7.86863 4.65855 7.31068 5.19884ZM8.97773 6.87771C9.21419 6.64125 9.5807 6.64125 9.81716 6.87771C10.0536 7.11417 10.0536 7.48069 9.81716 7.71715L6.05744 11.4769C6.72166 12.1419 7.09475 13.0434 7.09475 13.9834C7.09475 14.9233 6.72166 15.8248 6.05744 16.4898L7.72449 18.1569C8.53711 17.3435 9.09513 16.311 9.33029 15.1855C9.56546 14.0601 9.4676 12.8905 9.04867 11.8197L16.4972 4.37123C16.7336 4.13477 17.1001 4.13477 17.3248 4.37123C17.5494 4.60769 17.5731 4.97421 17.3248 5.21067L11.898 10.6493L13.5651 12.3163L20.6707 5.21067C20.9072 4.97421 21.2737 4.97421 21.5101 5.21067C21.7466 5.44713 21.7466 5.81364 21.5101 6.0501L14.4045 13.1557L16.0715 14.8228L21.9239 8.97039C22.1604 8.73393 22.5269 8.73393 22.7634 8.97039C22.9998 9.20685 22.9998 9.57336 22.7634 9.80982L16.0715 16.4898L17.7386 18.1687L21.9239 13.9834C22.1604 13.7469 22.5269 13.7469 22.7634 13.9834C22.9998 14.2198 22.9998 14.5863 22.7634 14.8228L15.6696 21.9284C12.6665 24.9315 7.80725 24.9315 4.8042 21.9284C1.80115 18.9254 1.80115 14.0661 4.8042 11.0631L8.97773 6.87771ZM26.1921 19.4456C26.1921 23.359 23.0117 26.5394 19.0982 26.5394V24.766C22.054 24.766 24.4186 22.4013 24.4186 19.4456H26.1921ZM0.181396 7.62256C0.181396 3.70914 3.36179 0.528748 7.27521 0.528748V2.3022C4.31946 2.3022 1.95485 4.66681 1.95485 7.62256H0.181396Z" fill="#2DBF6A"/>
</svg>
