<svg width="21" height="21" viewBox="0 0 21 21" fill="none" xmlns="http://www.w3.org/2000/svg">
<path d="M20.0373 7.0689C20.8393 9.22319 20.8801 11.5871 20.1528 13.7677C19.4256 15.9484 17.974 17.8146 16.0394 19.0562C14.1048 20.2978 11.8036 20.84 9.5182 20.5929C7.23278 20.3457 5.10073 19.324 3.47632 17.6974C1.65162 15.8787 0.593431 13.4298 0.519529 10.8546C0.445627 8.27936 1.36163 5.77377 3.07904 3.85343C4.79644 1.93308 7.1846 0.744068 9.75206 0.531074C12.3195 0.318081 14.871 1.09731 16.8813 2.7084L18.7553 0.833491C18.8594 0.729421 18.9829 0.646869 19.1189 0.590547C19.2549 0.534224 19.4006 0.505236 19.5478 0.505236C19.695 0.505236 19.8407 0.534224 19.9767 0.590547C20.1126 0.646869 20.2362 0.729421 20.3403 0.833491C20.4443 0.937561 20.5269 1.06111 20.5832 1.19708C20.6395 1.33306 20.6685 1.47879 20.6685 1.62597C20.6685 1.77315 20.6395 1.91888 20.5832 2.05486C20.5269 2.19083 20.4443 2.31438 20.3403 2.41845L11.3899 11.3688C11.2859 11.4729 11.1623 11.5554 11.0263 11.6117C10.8904 11.6681 10.7446 11.6971 10.5974 11.6971C10.4503 11.6971 10.3045 11.6681 10.1686 11.6117C10.0326 11.5554 9.90903 11.4729 9.80497 11.3688C9.7009 11.2647 9.61834 11.1412 9.56202 11.0052C9.5057 10.8692 9.47671 10.7235 9.47671 10.5763C9.47671 10.4291 9.5057 10.2834 9.56202 10.1474C9.61834 10.0115 9.7009 9.88791 9.80497 9.78384L12.0426 7.54625C11.4119 7.24495 10.7029 7.14804 10.0146 7.26904C9.32618 7.39004 8.69275 7.72293 8.20266 8.22123C7.71257 8.71954 7.39027 9.35842 7.28073 10.0487C7.17119 10.739 7.27988 11.4463 7.59163 12.0718C7.90338 12.6974 8.40264 13.21 9.01973 13.5382C9.63683 13.8663 10.341 13.9936 11.0339 13.9024C11.7269 13.8111 12.374 13.5058 12.8851 13.029C13.3962 12.5523 13.7457 11.9279 13.8848 11.2429C13.9434 10.952 14.1152 10.6963 14.3623 10.532C14.6095 10.3678 14.9118 10.3084 15.2027 10.367C15.4936 10.4256 15.7493 10.5974 15.9136 10.8445C16.0778 11.0917 16.1372 11.3939 16.0786 11.6849C15.8403 12.8588 15.2314 13.9253 14.3416 14.7273C13.4518 15.5292 12.328 16.0244 11.1357 16.1399C9.94336 16.2554 8.74546 15.985 7.71828 15.3687C6.6911 14.7524 5.8889 13.8226 5.42974 12.7161C4.97058 11.6097 4.87871 10.3852 5.16766 9.22263C5.45661 8.0601 6.11111 7.02103 7.03484 6.25834C7.95857 5.49565 9.10273 5.04962 10.2989 4.98591C11.4951 4.9222 12.6802 5.24417 13.6797 5.90442L15.2861 4.30362C13.7771 3.17667 11.9126 2.63124 10.0342 2.76729C8.15574 2.90335 6.38925 3.71177 5.05842 5.0444C3.72759 6.37703 2.92157 8.14462 2.78807 10.0232C2.65456 11.9018 3.20251 13.7657 4.33151 15.2731C5.4605 16.7805 7.09492 17.8306 8.93523 18.231C10.7755 18.6313 12.6985 18.355 14.3517 17.4528C16.0048 16.5506 17.2775 15.0828 17.9365 13.3185C18.5954 11.5542 18.5965 9.61151 17.9395 7.84646C17.8872 7.70847 17.8627 7.56149 17.8675 7.41399C17.8722 7.2665 17.9061 7.1214 17.9672 6.98705C18.0282 6.8527 18.1153 6.73176 18.2233 6.63119C18.3313 6.53063 18.4581 6.45242 18.5964 6.40107C18.7348 6.34973 18.8819 6.32626 19.0294 6.33203C19.1769 6.33779 19.3217 6.37267 19.4556 6.43466C19.5896 6.49665 19.7099 6.58452 19.8097 6.69321C19.9095 6.8019 19.9869 6.92926 20.0373 7.06797V7.0689Z" fill="black"/>
</svg>
